<svg id="Layer_1" data-name="Layer 1" xmlns="http://www.w3.org/2000/svg" viewBox="0 0 260.07 71.29"><defs><style>.cls-1{fill:none;}.cls-1,.cls-2{stroke:#231f20;stroke-miterlimit:10;}.cls-2,.cls-3{fill:#231f20;}.cls-4{fill:#fff;}</style></defs><title>logo svg</title><rect class="cls-1" x="0.5" y="0.5" width="259.07" height="70.29"/><rect class="cls-2" x="7.34" y="7.23" width="122.64" height="57.86"/><path class="cls-3" d="M456.54,224.91h4.82l3.17,8.69c.4,1.16.74,2.41,1.13,3.61h.12c.39-1.2.72-2.45,1.11-3.61l3.08-8.69h4.82v19.56h-4v-7.18c0-1.9.35-4.75.56-6.64h-.12l-1.6,4.63-2.77,7.49h-2.45l-2.77-7.49-1.56-4.63h-.12c.21,1.89.56,4.74.56,6.64v7.18h-4Z" transform="translate(-308.93 -200.18)"/><path class="cls-3" d="M482.58,224.91h12.25v3.71H487v3.93h6.67v3.71H487v4.5h8.13v3.71H482.58Z" transform="translate(-308.93 -200.18)"/><path class="cls-3" d="M506,228.62h-5.38v-3.71h15.19v3.71h-5.38v15.85H506Z" transform="translate(-308.93 -200.18)"/><path class="cls-3" d="M524.5,224.91h5.29l6.14,19.56h-4.68l-2.56-9.91c-.54-1.95-1.06-4.26-1.59-6.3H527c-.47,2.06-1,4.35-1.53,6.3l-2.57,9.91h-4.52Zm-2.09,11.46h9.4v3.44h-9.4Z" transform="translate(-308.93 -200.18)"/><path class="cls-3" d="M541,224.91h4.42v15.85h7.72v3.71H541Z" transform="translate(-308.93 -200.18)"/><path class="cls-4" d="M333.13,224.91h4.53l5.1,9.73,1.93,4.29h.12c-.2-2.06-.56-4.8-.56-7.11v-6.91h4.21v19.56h-4.53l-5.1-9.75-1.93-4.27h-.12c.2,2.15.56,4.77.56,7.08v6.94h-4.21Z" transform="translate(-308.93 -200.18)"/><path class="cls-4" d="M359.9,224.91h5.29l6.14,19.56h-4.68l-2.56-9.91c-.54-1.95-1.07-4.26-1.59-6.3h-.12c-.47,2.06-1,4.35-1.54,6.3l-2.56,9.91h-4.52Zm-2.1,11.46h9.41v3.44H357.8Z" transform="translate(-308.93 -200.18)"/><path class="cls-4" d="M376.39,224.91h12.34v3.71h-7.92v4.54h6.76v3.7h-6.76v7.61h-4.42Z" transform="translate(-308.93 -200.18)"/><path class="cls-4" d="M395.29,224.91h4.42v19.56h-4.42Z" transform="translate(-308.93 -200.18)"/><path class="cls-4" d="M406.26,241.8l8.64-13.18h-7.82v-3.71h13.27v2.67l-8.64,13.18h8.71v3.71H406.26Z" transform="translate(-308.93 -200.18)"/></svg>